<?xml version="1.0" encoding="UTF-8"?>
<!DOCTYPE svg PUBLIC "-//W3C//DTD SVG 1.1//EN" "http://www.w3.org/Graphics/SVG/1.1/DTD/svg11.dtd">
<!-- Creator: CorelDRAW -->
<svg xmlns="http://www.w3.org/2000/svg" xml:space="preserve" width="30px" height="30px" version="1.1" style="shape-rendering:geometricPrecision; text-rendering:geometricPrecision; image-rendering:optimizeQuality; fill-rule:evenodd; clip-rule:evenodd"
viewBox="0 0 30 30"
 xmlns:xlink="http://www.w3.org/1999/xlink"
 xmlns:xodm="http://www.corel.com/coreldraw/odm/2003">
 <defs>
  <style type="text/css">
   <![CDATA[
    .fil0 {fill:none}
    .fil1 {fill:white}
   ]]>
  </style>
 </defs>
 <g id="Layer_x0020_1">
  <metadata id="CorelCorpID_0Corel-Layer"/>
  <rect class="fil0" width="30" height="30"/>
  <path class="fil1" d="M24.47 14.13l0 8.79c0,1.51 -1.23,2.74 -2.74,2.74l-3.35 0 0 -6.8c0,-1.86 -1.52,-3.38 -3.38,-3.38 -1.86,0 -3.38,1.52 -3.38,3.38l0 6.8 -3.35 0c-1.51,0 -2.74,-1.23 -2.74,-2.74l0 -8.79c-0.67,-0.15 -2.61,-2.19 -2.53,-3.72 0.07,-1.25 0.6,-2.99 0.93,-4.37 0.3,-1.28 1.62,-1.7 2.94,-1.7l8.13 0 8.13 0c1.32,0 2.64,0.42 2.94,1.7 0.33,1.38 0.86,3.12 0.93,4.37 0.08,1.53 -1.86,3.57 -2.53,3.72zm-19.7 -3.77l5.64 0c0,1.37 -1.12,2.48 -2.49,2.48l-0.67 0c-1.36,0 -2.48,-1.11 -2.48,-2.48zm14.82 0l5.64 0c0,1.37 -1.12,2.48 -2.48,2.48l-0.67 0c-1.37,0 -2.49,-1.11 -2.49,-2.48zm-7.41 0l5.64 0c0,1.37 -1.12,2.48 -2.49,2.48l-0.66 0c-1.37,0 -2.49,-1.11 -2.49,-2.48z"/>
 </g>
</svg>
