<?xml version="1.0" encoding="UTF-8"?>
<!DOCTYPE svg PUBLIC "-//W3C//DTD SVG 1.1//EN" "http://www.w3.org/Graphics/SVG/1.1/DTD/svg11.dtd">
<!-- Creator: CorelDRAW -->
<svg xmlns="http://www.w3.org/2000/svg" xml:space="preserve" width="30px" height="30px" version="1.1" style="shape-rendering:geometricPrecision; text-rendering:geometricPrecision; image-rendering:optimizeQuality; fill-rule:evenodd; clip-rule:evenodd"
viewBox="0 0 30 30"
 xmlns:xlink="http://www.w3.org/1999/xlink"
 xmlns:xodm="http://www.corel.com/coreldraw/odm/2003">
 <defs>
  <style type="text/css">
   <![CDATA[
    .fil0 {fill:none}
    .fil1 {fill:white}
   ]]>
  </style>
 </defs>
 <g id="Layer_x0020_1">
  <metadata id="CorelCorpID_0Corel-Layer"/>
  <polygon class="fil0" points="0,0 30,0 30,30 0,30 "/>
  <path class="fil1" d="M8.91 9.22l10.13 -6.14c0.26,-0.16 0.6,-0.08 0.76,0.19l3.6 5.95 -0.93 0 -2.79 -4.61c-0.3,-0.5 -0.95,-0.66 -1.45,-0.36l-8.2 4.97 -1.12 0zm12.43 5.97l3.53 0c1.09,0 1.98,0.89 1.98,1.98l0 2.38c0,1.09 -0.89,1.98 -1.98,1.98l-3.53 0c-1.74,0 -3.17,-1.43 -3.17,-3.17 0,-1.74 1.43,-3.17 3.17,-3.17zm0.1 2.05c0.62,0 1.12,0.5 1.12,1.12 0,0.62 -0.5,1.11 -1.12,1.11 -0.61,0 -1.11,-0.49 -1.11,-1.11 0,-0.62 0.5,-1.12 1.11,-1.12zm-10.44 -8.02l7.49 -4.54c0.26,-0.16 0.6,-0.07 0.76,0.19l2.64 4.35 -6.03 0c-0.63,-0.45 -1.5,-0.5 -2.2,-0.08l-0.12 0.08 -2.54 0zm-5.87 0.5l18.66 0c1.08,0 1.97,0.89 1.97,1.97l0 2.57c-0.28,-0.09 -0.58,-0.13 -0.89,-0.13l-3.53 0c-2.33,0 -4.23,1.9 -4.23,4.23 0,2.33 1.9,4.23 4.23,4.23l3.53 0c0.31,0 0.61,-0.05 0.89,-0.13l0 2.57c0,1.08 -0.89,1.97 -1.97,1.97l-18.66 0c-1.09,0 -1.98,-0.89 -1.98,-1.97l0 -13.34c0,-1.08 0.89,-1.97 1.98,-1.97z"/>
 </g>
</svg>
