<?xml version="1.0" encoding="UTF-8"?>
<!DOCTYPE svg PUBLIC "-//W3C//DTD SVG 1.1//EN" "http://www.w3.org/Graphics/SVG/1.1/DTD/svg11.dtd">
<!-- Creator: CorelDRAW -->
<svg xmlns="http://www.w3.org/2000/svg" xml:space="preserve" width="30px" height="30px" version="1.1" style="shape-rendering:geometricPrecision; text-rendering:geometricPrecision; image-rendering:optimizeQuality; fill-rule:evenodd; clip-rule:evenodd"
viewBox="0 0 30 30"
 xmlns:xlink="http://www.w3.org/1999/xlink"
 xmlns:xodm="http://www.corel.com/coreldraw/odm/2003">
 <defs>
  <style type="text/css">
   <![CDATA[
    .fil0 {fill:none}
    .fil1 {fill:white}
   ]]>
  </style>
 </defs>
 <g id="Layer_x0020_1">
  <metadata id="CorelCorpID_0Corel-Layer"/>
  <polygon class="fil0" points="0,0 30,0 30,30 0,30 "/>
  <path class="fil1" d="M10.93 27l3.05 0 0 -2.15 -3.05 0 0 2.15zm-5.53 -16.71c-0.29,1.1 0.56,1.79 1.14,1.78l2.14 -0.03 -1.66 1.34c-0.48,0.38 -0.66,1.44 0.27,2.09 0.93,0.66 1.87,0.09 2.06,-0.45l0.7 -2.02 0.69 2.01c0.2,0.58 1.13,1.12 2.07,0.47 0.93,-0.66 0.72,-1.74 0.27,-2.1l-1.66 -1.35 2.13 0.04c0.61,0.01 1.44,-0.68 1.14,-1.78 -0.29,-1.1 -1.38,-1.27 -1.88,-0.97l-1.97 1.19 0.63 -2.22c0.17,-0.59 -0.29,-1.56 -1.42,-1.56 -1.14,0 -1.59,1 -1.43,1.56l0.64 2.22 -1.98 -1.19c-0.52,-0.31 -1.58,-0.13 -1.88,0.97zm4.65 2.29c-0.58,0 -1.04,-0.47 -1.04,-1.04 0,-0.58 0.46,-1.04 1.04,-1.04 0.57,0 1.04,0.46 1.04,1.04 0,0.57 -0.47,1.04 -1.04,1.04zm-0.67 10.85l2.29 0 0 -6.26c-0.61,-0.05 -1.19,-0.28 -1.63,-0.69 -0.19,0.18 -0.42,0.32 -0.66,0.43l0 6.52zm9.81 -14.79l0 -1.42 -4.34 0 0 1.01c-0.39,-0.26 -0.84,-0.43 -1.31,-0.47l0 -3.38 -0.78 0 0 -1.38 8.52 0 0 1.38 -0.78 0 0 4.26 0.3 0 0 14.79 -7.56 0 0 -6.57c0.13,-0.06 0.26,-0.14 0.38,-0.22 1.1,-0.78 1.55,-2.25 1.07,-3.41 1.13,-0.57 1.73,-1.99 1.37,-3.31 -0.13,-0.49 -0.39,-0.93 -0.72,-1.28l3.85 0zm0 -2.84l-4.34 0 0 -1.42 4.34 0 0 1.42zm3.18 17.63l2.29 0 0 -11.59c0,-1.44 -0.97,-2.67 -2.29,-3.06l0 14.65zm-2.31 3.57l3.05 0 0 -2.15 -3.05 0 0 2.15z"/>
 </g>
</svg>
