<?xml version="1.0" encoding="UTF-8"?>
<!DOCTYPE svg PUBLIC "-//W3C//DTD SVG 1.1//EN" "http://www.w3.org/Graphics/SVG/1.1/DTD/svg11.dtd">
<!-- Creator: CorelDRAW -->
<svg xmlns="http://www.w3.org/2000/svg" xml:space="preserve" width="30px" height="30px" version="1.1" style="shape-rendering:geometricPrecision; text-rendering:geometricPrecision; image-rendering:optimizeQuality; fill-rule:evenodd; clip-rule:evenodd"
viewBox="0 0 30 30"
 xmlns:xlink="http://www.w3.org/1999/xlink"
 xmlns:xodm="http://www.corel.com/coreldraw/odm/2003">
 <defs>
  <style type="text/css">
   <![CDATA[
    .fil0 {fill:none}
    .fil1 {fill:#1D94E0}
   ]]>
  </style>
 </defs>
 <g id="Layer_x0020_1">
  <metadata id="CorelCorpID_0Corel-Layer"/>
  <rect class="fil0" width="30" height="30"/>
  <path class="fil1" d="M4.31 4.29l20.17 0c0.73,0 1.32,0.59 1.32,1.31l0 4.96c-0.22,-0.07 -0.46,-0.1 -0.7,-0.1l-5.91 0c-1.28,0 -2.32,1.04 -2.32,2.32l0 3.49 -13.87 0 0 -10.67c0,-0.72 0.59,-1.31 1.31,-1.31zm19.78 12.91l-1.75 -0.94 -1.75 -0.94 0 1.88 0 1.88 1.75 -0.94 1.75 -0.94zm-1.94 6.78c0.25,0 0.46,0.2 0.46,0.46 0,0.25 -0.21,0.46 -0.46,0.46 -0.26,0 -0.46,-0.21 -0.46,-0.46 0,-0.26 0.2,-0.46 0.46,-0.46zm-2.96 1.73l5.91 0c1.05,0 1.9,-0.85 1.9,-1.9l0 -11.03c0,-1.04 -0.85,-1.9 -1.9,-1.9l-5.91 0c-1.04,0 -1.9,0.86 -1.9,1.9l0 11.03c0,1.05 0.86,1.9 1.9,1.9zm2.96 -2.07c0.44,0 0.8,0.36 0.8,0.8 0,0.44 -0.36,0.8 -0.8,0.8 -0.45,0 -0.81,-0.36 -0.81,-0.8 0,-0.44 0.36,-0.8 0.81,-0.8zm-3.12 -0.53l6.24 0c0.52,0 0.95,-0.42 0.95,-0.94l0 -9.44c0,-0.52 -0.43,-0.95 -0.95,-0.95l-6.24 0c-0.52,0 -0.95,0.43 -0.95,0.95l0 9.44c0,0.52 0.43,0.94 0.95,0.94zm-8.11 2.6l6.94 0c-0.33,-0.23 -0.59,-0.54 -0.77,-0.91l-6.17 0c-0.25,0 -0.45,0.21 -0.45,0.46l0 0c0,0.25 0.2,0.45 0.45,0.45zm5.69 -4.8l0 3.47 -4.42 0 0 -3.47 4.42 0zm0.26 0l-12.55 0c-0.73,0 -1.32,-0.59 -1.32,-1.31l0 -2.9 13.87 0 0 4.21z"/>
 </g>
</svg>
