<?xml version="1.0" encoding="UTF-8"?>
<!DOCTYPE svg PUBLIC "-//W3C//DTD SVG 1.1//EN" "http://www.w3.org/Graphics/SVG/1.1/DTD/svg11.dtd">
<!-- Creator: CorelDRAW -->
<svg xmlns="http://www.w3.org/2000/svg" xml:space="preserve" width="30px" height="30px" version="1.1" style="shape-rendering:geometricPrecision; text-rendering:geometricPrecision; image-rendering:optimizeQuality; fill-rule:evenodd; clip-rule:evenodd"
viewBox="0 0 30 30"
 xmlns:xlink="http://www.w3.org/1999/xlink"
 xmlns:xodm="http://www.corel.com/coreldraw/odm/2003">
 <defs>
  <style type="text/css">
   <![CDATA[
    .fil0 {fill:none}
    .fil1 {fill:#1D94E0}
   ]]>
  </style>
 </defs>
 <g id="Layer_x0020_1">
  <metadata id="CorelCorpID_0Corel-Layer"/>
  <polygon class="fil0" points="0,0 30,0 30,30 0,30 "/>
  <path class="fil1" d="M14.87 22.14l-1.7 0 -0.1 0c0,-2.14 -1.73,-3.86 -3.87,-3.86 -0.69,0 -1.35,0.18 -1.91,0.51l-2.31 -2.93 9.89 0 0 3.49 4.4 0 1.56 -8.29 1.2 0c0.23,0.21 0.45,0.44 0.66,0.68 -0.26,0.26 -0.35,0.67 -0.19,1.02l1.79 3.91c0.14,0.3 0.43,0.49 0.74,0.52 0.1,0.48 0.19,0.99 0.26,1.52 -0.53,-0.28 -1.13,-0.43 -1.77,-0.43 -2.13,0 -3.87,1.72 -3.87,3.86l-0.91 0 -3.87 0zm3.55 -13.61l0.83 0 1.58 0.69 0 1.56 2.04 0c0.74,0 1.35,-0.6 1.35,-1.33 0,-0.74 -0.61,-1.35 -1.35,-1.35l-1.81 0 -1.4 -0.61c-0.09,-0.05 -0.18,-0.08 -0.29,-0.08l-0.95 0c-0.31,0 -0.56,0.25 -0.56,0.56l0 0c0,0.31 0.25,0.56 0.56,0.56zm-9.22 13.6l-3.48 0c0,-1.92 1.56,-3.48 3.48,-3.48 1.93,0 3.49,1.56 3.49,3.48l-3.49 0zm1.38 0.37c0,0.76 -0.62,1.37 -1.38,1.37 -0.75,0 -1.37,-0.61 -1.37,-1.37l1.37 0 1.38 0zm1.46 0c0,1.57 -1.27,2.83 -2.84,2.83 -1.56,0 -2.83,-1.26 -2.83,-2.83l1.1 0c0,0.96 0.78,1.73 1.73,1.73 0.96,0 1.74,-0.77 1.74,-1.73l1.1 0zm-1.5 -9.45l-6.7 0c-0.46,0 -0.84,-0.38 -0.84,-0.84l0 -6.71c0,-0.46 0.38,-0.83 0.84,-0.83l6.7 0c0.46,0 0.84,0.37 0.84,0.83l0 6.71c0,0.46 -0.38,0.84 -0.84,0.84zm-5.56 2.48l10.43 0c0.6,0 1.09,-0.49 1.09,-1.09 0,-0.6 -0.49,-1.09 -1.09,-1.09l-10.43 0c-0.6,0 -1.09,0.49 -1.09,1.09 0,0.6 0.49,1.09 1.09,1.09zm18.54 6.6l-3.48 0c0,-1.92 1.56,-3.48 3.48,-3.48 1.92,0 3.48,1.56 3.48,3.48l-3.48 0zm1.37 0.37c0,0.76 -0.61,1.37 -1.37,1.37 -0.76,0 -1.37,-0.61 -1.37,-1.37l1.37 0 1.37 0zm1.46 0c0,1.57 -1.27,2.83 -2.83,2.83 -1.57,0 -2.83,-1.26 -2.83,-2.83l1.1 0c0,0.96 0.77,1.73 1.73,1.73 0.95,0 1.73,-0.77 1.73,-1.73l1.1 0zm-3.42 -10.45c0.94,1.22 1.59,2.81 2.02,4.74 -0.18,-0.04 -0.34,-0.15 -0.42,-0.33l-1.72 -3.74c-0.1,-0.23 -0.05,-0.5 0.12,-0.67z"/>
 </g>
</svg>
